<svg width="907" height="275" viewBox="0 0 907 275" fill="none" xmlns="http://www.w3.org/2000/svg">
<path d="M176.9 86.7C176.9 81.5 178.7 77.2 182.3 73.8C185.9 70.4 190.3 68.7 195.5 68.7C201.1 68.7 205.6 70.4 209 73.8C212.4 77.2 214.1 81.5 214.1 86.7C214.1 91.7 212.4 96 209 99.6C205.6 103 201.1 104.7 195.5 104.7C190.3 104.7 185.9 103 182.3 99.6C178.7 96 176.9 91.7 176.9 86.7ZM180.2 190.8H211.1V269.4C209.7 269.8 207.7 270.3 205.1 270.9C202.7 271.5 200 271.8 197 271.8C191.4 271.8 187.2 270.7 184.4 268.5C181.6 266.3 180.2 262.7 180.2 257.7V190.8ZM211.1 206.1H180.2V130.5C181.6 130.1 183.6 129.7 186.2 129.3C188.8 128.7 191.6 128.4 194.6 128.4C200.2 128.4 204.3 129.5 206.9 131.7C209.7 133.7 211.1 137.3 211.1 142.5V206.1ZM234.686 190.8L265.286 193.5V269.4C264.086 269.8 262.186 270.3 259.586 270.9C256.986 271.5 254.186 271.8 251.186 271.8C245.586 271.8 241.386 270.7 238.586 268.5C235.986 266.3 234.686 262.7 234.686 257.7V190.8ZM265.286 208.8L234.686 206.1V75.3C235.886 74.9 237.786 74.4 240.386 73.8C242.986 73.2 245.686 72.9 248.486 72.9C254.286 72.9 258.486 74 261.086 76.2C263.886 78.2 265.286 81.8 265.286 87V208.8ZM299.944 216.9L298.444 194.4L383.644 182.4C383.044 173 379.744 165.2 373.744 159C367.744 152.6 359.244 149.4 348.244 149.4C337.044 149.4 327.744 153.4 320.344 161.4C312.944 169.4 309.144 180.8 308.944 195.6L309.544 207C311.144 221.2 316.244 231.9 324.844 239.1C333.444 246.1 344.744 249.6 358.744 249.6C367.144 249.6 374.844 248.3 381.844 245.7C388.844 243.1 394.444 240.3 398.644 237.3C401.044 238.7 402.944 240.6 404.344 243C405.944 245.4 406.744 248 406.744 250.8C406.744 255.2 404.544 259.2 400.144 262.8C395.744 266.4 389.744 269.2 382.144 271.2C374.744 273.2 366.344 274.2 356.944 274.2C341.544 274.2 328.044 271.4 316.444 265.8C304.844 260 295.844 251.5 289.444 240.3C283.044 228.9 279.844 215 279.844 198.6C279.844 186.8 281.544 176.4 284.944 167.4C288.544 158.2 293.444 150.5 299.644 144.3C305.844 138.1 313.144 133.4 321.544 130.2C329.944 127 338.944 125.4 348.544 125.4C361.144 125.4 372.244 128.1 381.844 133.5C391.644 138.7 399.244 146 404.644 155.4C410.044 164.8 412.744 175.5 412.744 187.5C412.744 192.5 411.544 196.2 409.144 198.6C406.744 200.8 403.344 202.2 398.944 202.8L299.944 216.9ZM427.447 155.4H458.947V269.4C457.547 269.8 455.547 270.3 452.947 270.9C450.347 271.5 447.547 271.8 444.547 271.8C438.547 271.8 434.147 270.7 431.347 268.5C428.747 266.1 427.447 262.3 427.447 257.1V155.4ZM458.947 187.8H427.447V87.9C428.847 87.5 430.847 87.1 433.447 86.7C436.247 86.1 439.147 85.8 442.147 85.8C447.947 85.8 452.147 86.9 454.747 89.1C457.547 91.1 458.947 94.8 458.947 100.2V187.8ZM543.547 155.4H575.347V269.4C573.747 269.8 571.647 270.3 569.047 270.9C566.447 271.5 563.647 271.8 560.647 271.8C554.647 271.8 550.247 270.7 547.447 268.5C544.847 266.1 543.547 262.3 543.547 257.1V155.4ZM575.347 187.8H543.547V87.9C544.947 87.5 547.047 87.1 549.847 86.7C552.647 86.1 555.447 85.8 558.247 85.8C564.047 85.8 568.347 86.9 571.147 89.1C573.947 91.3 575.347 95.1 575.347 100.5V187.8ZM560.947 190.8H444.247V165H560.947V190.8ZM597.201 86.7C597.201 81.5 599.001 77.2 602.601 73.8C606.201 70.4 610.601 68.7 615.801 68.7C621.401 68.7 625.901 70.4 629.301 73.8C632.701 77.2 634.401 81.5 634.401 86.7C634.401 91.7 632.701 96 629.301 99.6C625.901 103 621.401 104.7 615.801 104.7C610.601 104.7 606.201 103 602.601 99.6C599.001 96 597.201 91.7 597.201 86.7ZM600.501 190.8H631.401V269.4C630.001 269.8 628.001 270.3 625.401 270.9C623.001 271.5 620.301 271.8 617.301 271.8C611.701 271.8 607.501 270.7 604.701 268.5C601.901 266.3 600.501 262.7 600.501 257.7V190.8ZM631.401 206.1H600.501V130.5C601.901 130.1 603.901 129.7 606.501 129.3C609.101 128.7 611.901 128.4 614.901 128.4C620.501 128.4 624.601 129.5 627.201 131.7C630.001 133.7 631.401 137.3 631.401 142.5V206.1ZM759.094 126.9C763.494 126.9 767.094 128 769.894 130.2C772.694 132.2 774.094 135.4 774.094 139.8C774.094 142.6 772.994 147.7 770.794 155.1C768.594 162.5 765.694 171.2 762.094 181.2C758.694 191 754.894 201.3 750.694 212.1C746.494 222.9 742.194 233.2 737.794 243C733.594 252.8 729.694 261.1 726.094 267.9C724.694 269.1 722.294 270.1 718.894 270.9C715.694 271.7 712.194 272.1 708.394 272.1C703.994 272.1 700.094 271.4 696.694 270C693.294 268.8 690.994 266.9 689.794 264.3C687.594 260.1 684.794 254.2 681.394 246.6C677.994 239 674.294 230.3 670.294 220.5C666.494 210.7 662.594 200.6 658.594 190.2C654.794 179.6 651.194 169.5 647.794 159.9C644.594 150.3 641.994 141.8 639.994 134.4C641.594 132.2 643.894 130.4 646.894 129C649.894 127.6 652.994 126.9 656.194 126.9C660.594 126.9 664.094 127.9 666.694 129.9C669.494 131.9 671.694 135.5 673.294 140.7L690.094 192.6C691.694 197.4 693.594 203 695.794 209.4C698.194 215.8 700.494 222.1 702.694 228.3C704.894 234.5 706.694 239.7 708.094 243.9H709.294C716.294 224.9 722.894 205.8 729.094 186.6C735.494 167.2 740.994 148.3 745.594 129.9C749.394 127.9 753.894 126.9 759.094 126.9ZM793.487 216.9L791.987 194.4L877.187 182.4C876.587 173 873.287 165.2 867.287 159C861.287 152.6 852.787 149.4 841.787 149.4C830.587 149.4 821.287 153.4 813.887 161.4C806.487 169.4 802.687 180.8 802.487 195.6L803.087 207C804.687 221.2 809.787 231.9 818.387 239.1C826.987 246.1 838.287 249.6 852.287 249.6C860.687 249.6 868.387 248.3 875.387 245.7C882.387 243.1 887.987 240.3 892.187 237.3C894.587 238.7 896.487 240.6 897.887 243C899.487 245.4 900.287 248 900.287 250.8C900.287 255.2 898.087 259.2 893.687 262.8C889.287 266.4 883.287 269.2 875.687 271.2C868.287 273.2 859.887 274.2 850.487 274.2C835.087 274.2 821.587 271.4 809.987 265.8C798.387 260 789.387 251.5 782.987 240.3C776.587 228.9 773.387 215 773.387 198.6C773.387 186.8 775.087 176.4 778.487 167.4C782.087 158.2 786.987 150.5 793.187 144.3C799.387 138.1 806.687 133.4 815.087 130.2C823.487 127 832.487 125.4 842.087 125.4C854.687 125.4 865.787 128.1 875.387 133.5C885.187 138.7 892.787 146 898.187 155.4C903.587 164.8 906.287 175.5 906.287 187.5C906.287 192.5 905.087 196.2 902.687 198.6C900.287 200.8 896.887 202.2 892.487 202.8L793.487 216.9Z" fill="#651FFF"/>
<path d="M47.2647 272.546H16.3375C16.3375 272.546 14.5471 245.439 15.6213 221.029C15.6213 196.241 34.8821 142.19 83.8458 141.979C83.9416 141.979 84.0376 141.979 84.1336 141.979H163.985V170.406C163.985 178.691 157.282 185.406 148.998 185.406H92.3694C49.7632 188.13 51.9968 227.965 52.2471 267.546C52.2645 270.307 50.0261 272.546 47.2647 272.546Z" fill="#00E5FF"/>
<path d="M40.7902 272.545H1.16835C1.16835 272.545 -0.80615 242.609 0.378535 215.651C0.378535 188.277 21.6201 128.586 75.6192 128.353C75.7248 128.353 75.8306 128.353 75.9366 128.353H164V171.312C164 174.073 161.791 176.312 159.03 176.312H85.0193C36.0514 179.447 40.7902 227.093 40.7902 272.545Z" fill="#651FFF"/>
<path d="M163.881 54.893V5.39889C163.881 2.66969 161.721 0.445782 158.992 0.405782C143.632 0.180382 96.8804 -0.420814 88.9229 0.480886C-26.6169 16.662 6.80374 152.195 2.26804 167.664C21.9624 130.765 52.2796 117.424 52.2796 117.424C52.2796 117.424 46.3116 67.327 88.9228 60.657C96.3682 59.492 143.281 59.773 158.86 59.901C161.641 59.923 163.881 57.675 163.881 54.893Z" fill="#00E5FF"/>
<path d="M164 55.902V15.495C164 15.495 104.249 14.607 95.5268 15.495C-1.43228 19.216 14.5618 136.585 14.5619 148.79C36.6434 124.238 52.6376 116.716 52.6376 116.716C52.6376 116.716 47.147 63.638 92.8617 60.941C99.6681 60.54 143.932 60.803 158.993 60.905C161.769 60.924 164 58.679 164 55.902Z" fill="#651FFF"/>
</svg>
