<svg width="17" height="16" viewBox="0 0 17 16" fill="none" xmlns="http://www.w3.org/2000/svg">
<path fill-rule="evenodd" clip-rule="evenodd" d="M14.1313 0.693601C14.0844 0.552257 13.9941 0.429246 13.8733 0.342092C13.7524 0.25505 13.6073 0.208241 13.4583 0.208359H3.54169C3.39274 0.208244 3.2476 0.25505 3.12676 0.342092C3.00594 0.429249 2.91567 0.552263 2.86874 0.693601L0.035421 9.19357C0.0113257 9.2654 -0.000665119 9.3408 2.8455e-05 9.41666V13.6666C2.8455e-05 14.2302 0.223917 14.7708 0.622474 15.1692C1.02091 15.5677 1.56148 15.7916 2.12502 15.7916H14.875C15.4385 15.7916 15.9791 15.5677 16.3775 15.1692C16.7761 14.7708 17 14.2302 17 13.6666V9.41666C17.0007 9.3408 16.9887 9.2654 16.9646 9.19357L14.1313 0.693601ZM4.05173 1.62503H12.9484L15.3106 8.70834H11.3333C11.1844 8.70822 11.0392 8.75503 10.9184 8.84207C10.7976 8.92923 10.7073 9.05224 10.6604 9.19358L10.115 10.8333H6.88499L6.33957 9.19358C6.29265 9.05223 6.20238 8.92922 6.08156 8.84207C5.96073 8.75503 5.81559 8.70822 5.66662 8.70834H1.68934L4.05173 1.62503ZM14.875 14.375H2.12507C1.93726 14.375 1.75706 14.3004 1.62425 14.1675C1.49132 14.0347 1.41673 13.8545 1.41673 13.6666V10.125H5.15672L5.70213 11.7647C5.74905 11.9061 5.83933 12.0291 5.96015 12.1163C6.08097 12.2033 6.22612 12.2501 6.37508 12.25H10.6251C10.774 12.2501 10.9192 12.2033 11.04 12.1163C11.1608 12.0291 11.2511 11.9061 11.298 11.7647L11.8434 10.125H15.5834V13.6666C15.5834 13.8545 15.5088 14.0347 15.3759 14.1675C15.2431 14.3004 15.0629 14.375 14.8751 14.375H14.875ZM4.24995 7.29171H12.7499C13.003 7.29171 13.2368 7.15671 13.3634 6.93755C13.4898 6.71838 13.4898 6.44838 13.3634 6.22921C13.2368 6.01005 13.003 5.87505 12.7499 5.87505H4.24995C3.9969 5.87505 3.76309 6.01005 3.63651 6.22921C3.51004 6.44838 3.51004 6.71838 3.63651 6.93755C3.7631 7.15671 3.9969 7.29171 4.24995 7.29171ZM11.3334 4.45838H5.66673C5.41368 4.45838 5.17987 4.32338 5.05329 4.10421C4.92681 3.88505 4.92681 3.61505 5.05329 3.39588C5.17987 3.17672 5.41367 3.04172 5.66673 3.04172H11.3334C11.5864 3.04172 11.8202 3.17672 11.9468 3.39588C12.0733 3.61505 12.0733 3.88505 11.9468 4.10421C11.8202 4.32338 11.5864 4.45838 11.3334 4.45838Z" fill="black"/>
</svg>
