<svg width="502" height="509" viewBox="0 0 502 509" fill="none" xmlns="http://www.w3.org/2000/svg">
<g clip-path="url(#clip0_0_240)">
<path d="M267.249 325.462C266.685 325.462 266.233 325.011 266.233 324.447C266.214 323.883 266.666 323.414 267.249 323.414C268.265 323.395 269.281 323.357 270.298 323.32C270.862 323.301 271.332 323.733 271.37 324.297C271.389 324.86 270.956 325.33 270.392 325.368C269.375 325.405 268.322 325.443 267.306 325.462C267.268 325.462 267.268 325.462 267.249 325.462ZM261.284 325.424C261.265 325.424 261.265 325.424 261.246 325.424C260.211 325.386 259.176 325.349 258.141 325.293C257.577 325.255 257.144 324.785 257.163 324.222C257.2 323.658 257.671 323.226 258.235 323.245C259.252 323.301 260.268 323.339 261.284 323.376C261.848 323.395 262.3 323.865 262.281 324.428C262.281 324.992 261.83 325.424 261.284 325.424ZM276.3 324.973C275.773 324.973 275.322 324.579 275.284 324.034C275.228 323.47 275.642 322.982 276.206 322.925C277.222 322.831 278.239 322.737 279.236 322.606C279.8 322.55 280.309 322.944 280.365 323.508C280.421 324.071 280.026 324.579 279.462 324.635C278.446 324.748 277.411 324.86 276.376 324.954C276.357 324.973 276.319 324.973 276.3 324.973ZM252.251 324.842C252.214 324.842 252.176 324.842 252.138 324.842C251.122 324.729 250.068 324.616 249.052 324.485C248.488 324.41 248.093 323.902 248.168 323.339C248.243 322.775 248.751 322.38 249.316 322.456C250.313 322.587 251.348 322.7 252.345 322.794C252.91 322.85 253.324 323.357 253.267 323.921C253.211 324.447 252.759 324.842 252.251 324.842ZM285.276 323.827C284.787 323.827 284.354 323.47 284.26 322.963C284.166 322.399 284.543 321.873 285.107 321.779C286.104 321.61 287.121 321.441 288.118 321.253C288.682 321.14 289.209 321.516 289.322 322.061C289.435 322.625 289.059 323.151 288.513 323.263C287.497 323.451 286.481 323.639 285.465 323.808C285.389 323.827 285.333 323.827 285.276 323.827ZM243.275 323.602C243.219 323.602 243.162 323.602 243.087 323.583C242.071 323.414 241.055 323.207 240.039 323C239.474 322.888 239.117 322.343 239.229 321.798C239.342 321.234 239.888 320.877 240.434 320.99C241.431 321.197 242.428 321.385 243.426 321.554C243.99 321.648 244.348 322.174 244.254 322.737C244.197 323.245 243.765 323.602 243.275 323.602ZM294.158 322.042C293.688 322.042 293.274 321.723 293.161 321.253C293.029 320.708 293.368 320.145 293.914 320.013C294.892 319.769 295.89 319.525 296.868 319.262C297.414 319.111 297.978 319.45 298.129 319.994C298.279 320.539 297.941 321.103 297.395 321.253C296.398 321.516 295.382 321.779 294.384 322.005C294.309 322.042 294.234 322.042 294.158 322.042ZM234.412 321.704C234.337 321.704 234.243 321.685 234.168 321.667C233.17 321.422 232.154 321.14 231.175 320.877C230.63 320.727 230.31 320.163 230.46 319.619C230.611 319.074 231.176 318.754 231.721 318.905C232.7 319.168 233.697 319.431 234.676 319.694C235.221 319.825 235.56 320.389 235.428 320.934C235.297 321.403 234.883 321.704 234.412 321.704ZM302.871 319.619C302.438 319.619 302.024 319.337 301.892 318.905C301.723 318.36 302.024 317.796 302.551 317.627C303.511 317.327 304.489 316.988 305.449 316.669C305.976 316.481 306.559 316.763 306.747 317.308C306.936 317.834 306.653 318.416 306.108 318.604C305.129 318.942 304.151 319.262 303.172 319.581C303.078 319.6 302.984 319.619 302.871 319.619ZM225.718 319.168C225.605 319.168 225.511 319.149 225.398 319.111C224.42 318.792 223.423 318.435 222.463 318.097C221.936 317.909 221.654 317.327 221.842 316.782C222.03 316.256 222.613 315.974 223.159 316.162C224.119 316.5 225.079 316.838 226.057 317.157C226.603 317.327 226.885 317.909 226.716 318.454C226.565 318.905 226.151 319.168 225.718 319.168ZM311.395 316.556C310.981 316.556 310.605 316.312 310.436 315.917C310.229 315.391 310.473 314.79 311 314.583C311.941 314.208 312.882 313.813 313.804 313.419C314.331 313.193 314.933 313.437 315.159 313.945C315.385 314.471 315.14 315.072 314.632 315.297C313.691 315.711 312.731 316.105 311.772 316.481C311.64 316.519 311.527 316.556 311.395 316.556ZM217.213 316.011C217.081 316.011 216.949 315.993 216.818 315.936C215.858 315.542 214.898 315.128 213.957 314.715C213.449 314.49 213.205 313.888 213.43 313.362C213.656 312.836 214.258 312.611 214.785 312.836C215.707 313.25 216.667 313.663 217.589 314.039C218.116 314.264 218.361 314.847 218.135 315.373C218.003 315.767 217.627 316.011 217.213 316.011ZM319.638 312.893C319.261 312.893 318.885 312.686 318.715 312.31C318.471 311.803 318.678 311.183 319.186 310.939C320.089 310.488 321.011 310.037 321.896 309.567C322.404 309.304 323.025 309.492 323.288 309.999C323.552 310.507 323.363 311.127 322.855 311.39C321.952 311.859 321.011 312.329 320.089 312.78C319.957 312.855 319.788 312.893 319.638 312.893ZM208.971 312.216C208.82 312.216 208.651 312.179 208.5 312.104C207.578 311.634 206.656 311.164 205.734 310.676C205.226 310.413 205.038 309.793 205.32 309.285C205.583 308.778 206.204 308.59 206.712 308.872C207.616 309.342 208.519 309.83 209.422 310.281C209.93 310.544 210.137 311.145 209.874 311.653C209.705 312.01 209.347 312.216 208.971 312.216ZM327.616 308.628C327.259 308.628 326.92 308.44 326.732 308.12C326.45 307.632 326.619 307.012 327.108 306.711C327.974 306.204 328.858 305.678 329.724 305.152C330.213 304.851 330.834 305.002 331.135 305.49C331.436 305.979 331.286 306.599 330.796 306.899C329.931 307.444 329.028 307.97 328.143 308.496C327.955 308.571 327.786 308.628 327.616 308.628ZM201.03 307.857C200.841 307.857 200.672 307.801 200.503 307.707C199.618 307.181 198.734 306.636 197.868 306.073C197.398 305.772 197.247 305.133 197.548 304.664C197.849 304.194 198.489 304.044 198.96 304.344C199.806 304.889 200.691 305.415 201.556 305.941C202.046 306.223 202.196 306.862 201.914 307.35C201.726 307.67 201.387 307.857 201.03 307.857ZM335.256 303.799C334.936 303.799 334.616 303.649 334.409 303.348C334.09 302.879 334.202 302.24 334.673 301.921C335.501 301.357 336.348 300.756 337.157 300.173C337.608 299.835 338.248 299.948 338.587 300.399C338.926 300.85 338.813 301.488 338.361 301.827C337.533 302.428 336.668 303.029 335.821 303.611C335.651 303.743 335.444 303.799 335.256 303.799ZM193.427 302.916C193.22 302.916 193.013 302.86 192.844 302.728C191.997 302.146 191.15 301.526 190.322 300.906C189.871 300.568 189.777 299.929 190.115 299.478C190.454 299.027 191.094 298.933 191.545 299.271C192.355 299.873 193.201 300.474 194.029 301.056C194.5 301.376 194.613 302.014 194.274 302.484C194.067 302.766 193.766 302.916 193.427 302.916ZM342.52 298.426C342.219 298.426 341.918 298.294 341.711 298.031C341.353 297.581 341.428 296.942 341.88 296.585C342.67 295.946 343.461 295.307 344.232 294.65C344.665 294.293 345.305 294.349 345.681 294.781C346.039 295.213 345.982 295.852 345.55 296.228C344.759 296.885 343.95 297.543 343.16 298.182C342.971 298.351 342.746 298.426 342.52 298.426ZM186.22 297.449C185.994 297.449 185.768 297.374 185.58 297.224C184.79 296.566 183.981 295.908 183.209 295.232C182.776 294.856 182.739 294.217 183.096 293.785C183.473 293.353 184.112 293.316 184.545 293.673C185.317 294.33 186.107 294.988 186.879 295.627C187.311 295.984 187.387 296.622 187.029 297.073C186.803 297.317 186.521 297.449 186.22 297.449ZM349.388 292.527C349.106 292.527 348.843 292.414 348.636 292.188C348.259 291.775 348.278 291.117 348.692 290.742C349.445 290.047 350.179 289.351 350.913 288.656C351.327 288.262 351.966 288.281 352.362 288.675C352.757 289.088 352.738 289.727 352.343 290.122C351.609 290.836 350.856 291.55 350.085 292.245C349.896 292.451 349.633 292.527 349.388 292.527ZM179.427 291.474C179.182 291.474 178.919 291.381 178.731 291.193C177.978 290.479 177.244 289.765 176.51 289.032C176.115 288.637 176.115 287.98 176.51 287.585C176.905 287.191 177.564 287.191 177.959 287.585C178.674 288.299 179.408 289.013 180.142 289.708C180.556 290.103 180.575 290.742 180.18 291.155C179.973 291.362 179.69 291.474 179.427 291.474ZM355.824 286.158C355.579 286.158 355.316 286.064 355.128 285.876C354.714 285.481 354.695 284.842 355.071 284.429C355.768 283.696 356.464 282.926 357.122 282.174C357.499 281.761 358.139 281.724 358.571 282.099C358.985 282.475 359.023 283.114 358.647 283.546C357.969 284.316 357.254 285.087 356.558 285.838C356.37 286.064 356.087 286.158 355.824 286.158ZM173.066 285.03C172.784 285.03 172.521 284.918 172.314 284.692C171.617 283.941 170.921 283.151 170.244 282.381C169.867 281.949 169.924 281.31 170.338 280.934C170.771 280.559 171.41 280.615 171.787 281.028C172.445 281.799 173.142 282.55 173.819 283.302C174.195 283.715 174.177 284.373 173.763 284.748C173.574 284.936 173.33 285.03 173.066 285.03ZM361.77 279.356C361.545 279.356 361.319 279.281 361.131 279.131C360.698 278.774 360.623 278.135 360.98 277.684C361.62 276.895 362.26 276.087 362.881 275.298C363.219 274.847 363.878 274.772 364.311 275.11C364.762 275.448 364.838 276.106 364.499 276.538C363.878 277.346 363.219 278.173 362.58 278.962C362.354 279.225 362.072 279.356 361.77 279.356ZM167.214 278.135C166.913 278.135 166.612 278.004 166.405 277.741C165.765 276.933 165.125 276.106 164.523 275.298C164.184 274.847 164.279 274.208 164.73 273.87C165.182 273.532 165.822 273.626 166.16 274.077C166.762 274.885 167.383 275.693 168.023 276.482C168.381 276.933 168.306 277.571 167.854 277.928C167.666 278.06 167.44 278.135 167.214 278.135ZM367.209 272.123C367.002 272.123 366.795 272.067 366.625 271.935C366.155 271.616 366.042 270.977 366.362 270.507C366.945 269.681 367.51 268.835 368.074 267.99C368.394 267.52 369.015 267.388 369.504 267.708C369.975 268.027 370.107 268.647 369.787 269.136C369.222 270 368.639 270.864 368.037 271.71C367.849 271.954 367.529 272.123 367.209 272.123ZM161.87 270.845C161.55 270.845 161.211 270.695 161.023 270.395C160.44 269.549 159.875 268.685 159.311 267.821C159.01 267.351 159.141 266.712 159.612 266.411C160.082 266.111 160.722 266.242 161.023 266.712C161.569 267.558 162.133 268.422 162.698 269.248C163.018 269.718 162.886 270.357 162.416 270.676C162.265 270.789 162.077 270.845 161.87 270.845ZM372.12 264.514C371.951 264.514 371.763 264.476 371.593 264.364C371.104 264.082 370.953 263.443 371.236 262.955C371.763 262.09 372.271 261.188 372.76 260.305C373.042 259.817 373.663 259.629 374.152 259.911C374.642 260.193 374.83 260.813 374.548 261.301C374.04 262.203 373.531 263.105 373.005 263.988C372.798 264.326 372.459 264.514 372.12 264.514ZM157.071 263.199C156.714 263.199 156.375 263.011 156.187 262.691C155.679 261.808 155.171 260.888 154.682 260.005C154.418 259.516 154.587 258.878 155.096 258.615C155.585 258.352 156.225 258.521 156.488 259.028C156.977 259.911 157.467 260.813 157.975 261.677C158.257 262.165 158.088 262.785 157.598 263.067C157.429 263.161 157.241 263.199 157.071 263.199ZM376.448 256.548C376.298 256.548 376.147 256.51 375.997 256.435C375.488 256.191 375.282 255.571 375.545 255.064C375.997 254.162 376.448 253.241 376.881 252.321C377.126 251.813 377.728 251.588 378.236 251.832C378.744 252.076 378.97 252.678 378.725 253.185C378.292 254.124 377.841 255.064 377.37 255.984C377.201 256.341 376.825 256.548 376.448 256.548ZM152.837 255.214C152.461 255.214 152.085 255.007 151.915 254.632C151.464 253.711 151.031 252.772 150.598 251.832C150.372 251.325 150.598 250.705 151.106 250.479C151.614 250.254 152.235 250.479 152.461 250.987C152.875 251.907 153.308 252.828 153.759 253.73C154.004 254.237 153.797 254.857 153.289 255.101C153.138 255.195 152.988 255.214 152.837 255.214ZM380.193 248.3C380.061 248.3 379.93 248.281 379.798 248.225C379.271 248.018 379.026 247.417 379.233 246.891C379.61 245.952 380.005 244.993 380.362 244.054C380.569 243.528 381.153 243.265 381.68 243.453C382.206 243.659 382.47 244.242 382.282 244.768C381.905 245.726 381.529 246.703 381.134 247.661C380.983 248.056 380.607 248.3 380.193 248.3ZM149.206 246.966C148.792 246.966 148.415 246.722 148.246 246.327C147.87 245.369 147.493 244.392 147.136 243.434C146.947 242.908 147.211 242.307 147.738 242.119C148.265 241.931 148.867 242.194 149.055 242.72C149.413 243.678 149.77 244.618 150.146 245.557C150.353 246.083 150.09 246.684 149.563 246.891C149.469 246.947 149.337 246.966 149.206 246.966ZM383.335 239.789C383.223 239.789 383.128 239.77 383.016 239.733C382.47 239.564 382.188 238.981 382.357 238.436C382.677 237.478 382.978 236.501 383.26 235.524C383.43 234.979 383.994 234.679 384.54 234.829C385.086 234.998 385.387 235.562 385.236 236.107C384.935 237.102 384.634 238.079 384.314 239.056C384.163 239.526 383.768 239.789 383.335 239.789ZM146.176 238.436C145.743 238.436 145.329 238.155 145.197 237.722C144.896 236.746 144.595 235.75 144.313 234.754C144.162 234.209 144.463 233.646 145.009 233.495C145.555 233.345 146.119 233.646 146.27 234.19C146.552 235.167 146.853 236.144 147.154 237.102C147.324 237.647 147.023 238.211 146.477 238.38C146.383 238.436 146.289 238.436 146.176 238.436ZM385.819 231.109C385.744 231.109 385.65 231.09 385.575 231.072C385.029 230.94 384.69 230.376 384.822 229.832C385.067 228.855 385.293 227.859 385.518 226.863C385.631 226.318 386.196 225.961 386.742 226.093C387.287 226.206 387.645 226.769 387.513 227.314C387.287 228.31 387.061 229.324 386.798 230.339C386.704 230.79 386.29 231.109 385.819 231.109ZM143.786 229.719C143.316 229.719 142.902 229.399 142.789 228.93C142.544 227.934 142.318 226.919 142.111 225.905C141.998 225.36 142.356 224.815 142.902 224.702C143.447 224.59 143.993 224.947 144.106 225.492C144.313 226.487 144.539 227.483 144.765 228.46C144.896 229.005 144.558 229.569 143.993 229.7C143.955 229.719 143.861 229.719 143.786 229.719ZM387.682 222.26C387.626 222.26 387.57 222.26 387.513 222.241C386.949 222.147 386.572 221.621 386.666 221.058C386.836 220.062 387.005 219.047 387.137 218.052C387.212 217.488 387.739 217.112 388.303 217.187C388.868 217.263 389.244 217.789 389.169 218.352C389.018 219.367 388.849 220.4 388.68 221.415C388.604 221.903 388.172 222.26 387.682 222.26ZM142.055 220.851C141.566 220.851 141.133 220.494 141.039 219.987C140.869 218.972 140.719 217.939 140.587 216.924C140.512 216.361 140.907 215.853 141.471 215.778C142.036 215.703 142.544 216.098 142.619 216.661C142.751 217.657 142.902 218.672 143.052 219.667C143.146 220.231 142.751 220.757 142.205 220.832C142.149 220.851 142.092 220.851 142.055 220.851ZM388.868 213.298C388.83 213.298 388.793 213.298 388.774 213.298C388.209 213.242 387.795 212.735 387.852 212.19C387.946 211.175 388.04 210.161 388.115 209.146C388.153 208.583 388.642 208.15 389.207 208.207C389.771 208.244 390.204 208.733 390.148 209.296C390.072 210.33 389.978 211.363 389.884 212.378C389.846 212.904 389.395 213.298 388.868 213.298ZM140.945 211.889C140.418 211.889 139.966 211.495 139.928 210.95C139.834 209.935 139.759 208.883 139.703 207.869C139.665 207.305 140.098 206.816 140.662 206.779C141.227 206.741 141.716 207.173 141.754 207.737C141.81 208.752 141.885 209.766 141.98 210.781C142.036 211.344 141.603 211.833 141.039 211.889C141.001 211.889 140.982 211.889 140.945 211.889ZM389.414 204.28H389.395C388.83 204.261 388.379 203.792 388.397 203.228C388.416 202.213 388.435 201.199 388.435 200.184C388.435 200.147 388.435 200.109 388.435 200.072C388.435 200.034 388.435 199.997 388.435 199.959C388.435 198.944 388.416 197.911 388.397 196.915C388.379 196.352 388.83 195.882 389.395 195.863C389.959 195.844 390.43 196.295 390.449 196.859C390.467 197.892 390.486 198.926 390.486 199.959C390.486 199.997 390.486 200.034 390.486 200.072C390.486 200.109 390.486 200.147 390.486 200.184C390.486 201.218 390.467 202.251 390.449 203.284C390.43 203.829 389.978 204.28 389.414 204.28ZM140.512 202.852C139.947 202.852 139.496 202.401 139.496 201.838C139.496 201.274 139.477 200.729 139.477 200.166C139.477 199.696 139.477 199.207 139.477 198.738C139.477 198.174 139.947 197.723 140.493 197.723C140.493 197.723 140.493 197.723 140.512 197.723C141.076 197.723 141.528 198.193 141.528 198.757C141.528 199.226 141.528 199.696 141.528 200.166C141.528 200.71 141.528 201.255 141.547 201.8C141.547 202.383 141.095 202.852 140.512 202.852ZM140.719 193.815C140.7 193.815 140.681 193.815 140.662 193.815C140.098 193.778 139.665 193.289 139.703 192.726C139.759 191.692 139.834 190.659 139.928 189.644C139.985 189.081 140.474 188.667 141.039 188.705C141.603 188.743 142.017 189.25 141.98 189.813C141.904 190.828 141.829 191.843 141.773 192.857C141.716 193.402 141.246 193.815 140.719 193.815ZM389.113 191.937C388.586 191.937 388.134 191.523 388.096 190.997C388.021 189.983 387.927 188.968 387.833 187.953C387.776 187.39 388.19 186.883 388.755 186.826C389.32 186.77 389.828 187.183 389.884 187.747C389.978 188.761 390.072 189.813 390.148 190.828C390.185 191.392 389.771 191.88 389.207 191.918C389.169 191.937 389.131 191.937 389.113 191.937ZM141.566 184.816C141.528 184.816 141.471 184.816 141.434 184.816C140.869 184.741 140.474 184.233 140.549 183.67C140.681 182.655 140.832 181.622 141.001 180.607C141.095 180.044 141.622 179.668 142.168 179.762C142.732 179.856 143.109 180.382 143.015 180.927C142.864 181.923 142.713 182.937 142.582 183.933C142.525 184.44 142.074 184.816 141.566 184.816ZM388.115 182.956C387.607 182.956 387.174 182.599 387.099 182.073C386.949 181.077 386.798 180.063 386.61 179.067C386.516 178.503 386.892 177.977 387.438 177.883C388.002 177.789 388.529 178.165 388.623 178.71C388.793 179.724 388.962 180.758 389.113 181.772C389.188 182.336 388.811 182.843 388.247 182.937C388.209 182.956 388.172 182.956 388.115 182.956ZM143.09 175.91C143.015 175.91 142.958 175.91 142.883 175.892C142.337 175.779 141.98 175.234 142.092 174.689C142.299 173.675 142.525 172.66 142.751 171.664C142.883 171.12 143.429 170.763 143.974 170.894C144.52 171.026 144.877 171.571 144.746 172.115C144.52 173.092 144.294 174.088 144.087 175.084C143.993 175.572 143.56 175.91 143.09 175.91ZM386.478 174.069C386.008 174.069 385.594 173.75 385.481 173.261C385.255 172.266 385.029 171.27 384.784 170.293C384.653 169.748 384.991 169.184 385.537 169.053C386.083 168.921 386.647 169.26 386.779 169.804C387.024 170.8 387.268 171.815 387.494 172.81C387.626 173.355 387.268 173.919 386.723 174.032C386.629 174.069 386.553 174.069 386.478 174.069ZM145.235 167.118C145.141 167.118 145.047 167.099 144.953 167.08C144.407 166.93 144.087 166.366 144.238 165.821C144.52 164.826 144.821 163.83 145.122 162.853C145.291 162.308 145.875 162.007 146.402 162.177C146.947 162.346 147.249 162.928 147.079 163.454C146.778 164.412 146.477 165.408 146.214 166.366C146.101 166.836 145.687 167.118 145.235 167.118ZM384.182 165.314C383.749 165.314 383.335 165.032 383.204 164.581C382.922 163.623 382.602 162.646 382.282 161.669C382.112 161.124 382.395 160.561 382.94 160.373C383.486 160.204 384.051 160.486 384.239 161.031C384.559 162.007 384.879 163.003 385.161 163.98C385.33 164.525 385.01 165.089 384.483 165.258C384.389 165.314 384.276 165.314 384.182 165.314ZM148.039 158.513C147.926 158.513 147.794 158.494 147.681 158.457C147.154 158.269 146.872 157.668 147.079 157.141C147.437 156.183 147.813 155.206 148.189 154.229C148.396 153.703 148.999 153.44 149.525 153.647C150.052 153.854 150.316 154.455 150.109 154.981C149.732 155.92 149.375 156.878 149.017 157.837C148.848 158.25 148.453 158.513 148.039 158.513ZM381.266 156.766C380.852 156.766 380.456 156.521 380.306 156.108C379.948 155.169 379.572 154.211 379.177 153.271C378.97 152.745 379.214 152.144 379.741 151.937C380.268 151.731 380.87 151.975 381.077 152.501C381.473 153.459 381.849 154.417 382.225 155.375C382.432 155.901 382.169 156.503 381.642 156.691C381.51 156.747 381.378 156.766 381.266 156.766ZM151.464 150.115C151.313 150.115 151.181 150.077 151.05 150.021C150.542 149.795 150.297 149.175 150.542 148.668C150.974 147.729 151.407 146.789 151.859 145.85C152.103 145.343 152.724 145.136 153.233 145.38C153.741 145.624 153.966 146.244 153.703 146.752C153.27 147.672 152.837 148.593 152.405 149.514C152.235 149.889 151.859 150.115 151.464 150.115ZM377.728 148.461C377.351 148.461 376.975 148.236 376.806 147.879C376.373 146.958 375.921 146.038 375.489 145.155C375.244 144.648 375.432 144.028 375.94 143.783C376.448 143.539 377.069 143.727 377.314 144.234C377.765 145.155 378.217 146.075 378.669 147.015C378.913 147.522 378.688 148.142 378.179 148.368C378.01 148.424 377.86 148.461 377.728 148.461ZM155.491 141.998C155.321 141.998 155.152 141.961 155.001 141.867C154.512 141.604 154.324 140.984 154.587 140.477C155.077 139.575 155.585 138.654 156.112 137.771C156.394 137.283 157.015 137.114 157.504 137.395C157.993 137.677 158.163 138.297 157.881 138.786C157.372 139.669 156.864 140.552 156.394 141.454C156.206 141.811 155.867 141.998 155.491 141.998ZM373.588 140.439C373.23 140.439 372.873 140.251 372.685 139.913C372.195 139.03 371.669 138.147 371.16 137.283C370.878 136.794 371.029 136.174 371.518 135.874C372.007 135.592 372.628 135.742 372.929 136.231C373.456 137.114 373.983 138.015 374.472 138.898C374.755 139.387 374.566 140.007 374.077 140.289C373.927 140.401 373.757 140.439 373.588 140.439ZM160.101 134.22C159.913 134.22 159.725 134.164 159.555 134.051C159.085 133.751 158.934 133.112 159.254 132.642C159.819 131.778 160.383 130.914 160.967 130.049C161.287 129.58 161.926 129.467 162.397 129.768C162.867 130.087 162.98 130.726 162.679 131.195C162.115 132.041 161.55 132.886 161.004 133.751C160.778 134.051 160.44 134.22 160.101 134.22ZM368.884 132.736C368.545 132.736 368.225 132.567 368.018 132.285C367.453 131.44 366.889 130.594 366.305 129.768C365.986 129.298 366.098 128.659 366.569 128.34C367.039 128.02 367.679 128.133 367.999 128.603C368.582 129.448 369.166 130.312 369.73 131.158C370.05 131.628 369.918 132.266 369.448 132.586C369.26 132.68 369.072 132.736 368.884 132.736ZM165.276 126.78C165.069 126.78 164.843 126.705 164.655 126.574C164.203 126.235 164.109 125.597 164.448 125.146C165.069 124.319 165.709 123.492 166.33 122.685C166.687 122.234 167.327 122.158 167.779 122.515C168.23 122.872 168.306 123.511 167.948 123.962C167.327 124.751 166.687 125.578 166.085 126.386C165.897 126.63 165.596 126.78 165.276 126.78ZM363.615 125.39C363.313 125.39 363.012 125.258 362.805 124.995C362.184 124.188 361.545 123.398 360.924 122.609C360.566 122.177 360.641 121.52 361.074 121.163C361.507 120.806 362.166 120.881 362.523 121.313C363.163 122.121 363.822 122.929 364.443 123.737C364.781 124.188 364.706 124.826 364.254 125.165C364.047 125.315 363.84 125.39 363.615 125.39ZM170.959 119.735C170.714 119.735 170.488 119.66 170.281 119.491C169.849 119.115 169.811 118.476 170.187 118.044C170.865 117.274 171.561 116.485 172.257 115.733C172.634 115.32 173.292 115.282 173.706 115.658C174.12 116.034 174.158 116.691 173.781 117.105C173.104 117.856 172.408 118.608 171.749 119.378C171.542 119.622 171.26 119.735 170.959 119.735ZM357.837 118.439C357.555 118.439 357.273 118.326 357.066 118.1C356.389 117.349 355.692 116.597 355.015 115.846C354.62 115.432 354.639 114.794 355.053 114.399C355.466 114.005 356.106 114.023 356.501 114.437C357.198 115.188 357.913 115.959 358.59 116.729C358.967 117.142 358.929 117.8 358.515 118.175C358.327 118.345 358.082 118.439 357.837 118.439ZM177.15 113.122C176.886 113.122 176.623 113.028 176.416 112.821C176.021 112.426 176.021 111.769 176.416 111.374C177.15 110.642 177.884 109.928 178.636 109.214C179.05 108.819 179.69 108.838 180.085 109.251C180.481 109.665 180.462 110.303 180.048 110.698C179.314 111.393 178.58 112.107 177.865 112.821C177.677 113.028 177.413 113.122 177.15 113.122ZM351.552 111.919C351.289 111.919 351.044 111.825 350.837 111.637C350.103 110.942 349.37 110.228 348.617 109.552C348.203 109.176 348.165 108.519 348.56 108.105C348.937 107.692 349.595 107.654 350.009 108.049C350.762 108.744 351.534 109.458 352.267 110.172C352.681 110.566 352.681 111.205 352.286 111.619C352.098 111.806 351.835 111.919 351.552 111.919ZM183.793 106.997C183.51 106.997 183.209 106.884 183.021 106.64C182.645 106.208 182.701 105.569 183.134 105.193C183.905 104.517 184.715 103.859 185.505 103.202C185.938 102.845 186.596 102.901 186.954 103.352C187.311 103.784 187.255 104.442 186.803 104.799C186.013 105.437 185.241 106.095 184.47 106.752C184.263 106.903 184.037 106.997 183.793 106.997ZM344.834 105.869C344.609 105.869 344.364 105.794 344.176 105.625C343.404 104.968 342.614 104.329 341.805 103.69C341.353 103.333 341.297 102.694 341.635 102.243C341.993 101.792 342.633 101.736 343.084 102.074C343.894 102.713 344.703 103.371 345.493 104.028C345.926 104.385 345.982 105.043 345.625 105.475C345.418 105.738 345.117 105.869 344.834 105.869ZM190.868 101.342C190.548 101.342 190.247 101.191 190.04 100.928C189.701 100.477 189.795 99.8385 190.247 99.5004C191.075 98.8804 191.922 98.2792 192.75 97.6967C193.22 97.3773 193.86 97.4901 194.18 97.941C194.5 98.4107 194.387 99.0495 193.935 99.3689C193.107 99.9513 192.279 100.552 191.47 101.154C191.282 101.285 191.075 101.342 190.868 101.342ZM337.684 100.308C337.477 100.308 337.27 100.252 337.082 100.12C336.254 99.5192 335.426 98.9367 334.579 98.3731C334.108 98.0537 333.995 97.4149 334.315 96.9452C334.635 96.4755 335.275 96.3628 335.746 96.6822C336.592 97.2646 337.458 97.8658 338.286 98.467C338.738 98.8052 338.85 99.444 338.512 99.8949C338.305 100.158 338.004 100.308 337.684 100.308ZM198.32 96.2313C197.981 96.2313 197.642 96.0622 197.454 95.7616C197.153 95.2919 197.285 94.6531 197.774 94.3525C198.64 93.8077 199.524 93.2628 200.409 92.718C200.898 92.4174 201.519 92.5864 201.82 93.0749C202.121 93.5634 201.952 94.1834 201.462 94.484C200.597 95.0101 199.731 95.5361 198.866 96.081C198.696 96.1749 198.508 96.2313 198.32 96.2313ZM330.138 95.2919C329.95 95.2919 329.761 95.2355 329.592 95.1416C328.727 94.6155 327.842 94.0895 326.976 93.5822C326.487 93.3004 326.318 92.6616 326.6 92.1731C326.882 91.6846 327.522 91.5155 328.011 91.7974C328.896 92.3234 329.799 92.8495 330.684 93.3943C331.173 93.6949 331.323 94.3149 331.022 94.8034C330.815 95.1228 330.477 95.2919 330.138 95.2919ZM206.11 91.6658C205.753 91.6658 205.395 91.478 205.207 91.121C204.944 90.6137 205.132 89.9937 205.621 89.7307C206.524 89.2422 207.446 88.7725 208.368 88.3028C208.877 88.0398 209.497 88.2465 209.742 88.7537C210.006 89.261 209.799 89.881 209.29 90.1252C208.387 90.5761 207.484 91.0458 206.6 91.5343C206.449 91.6283 206.28 91.6658 206.11 91.6658ZM322.253 90.8204C322.103 90.8204 321.933 90.7828 321.783 90.7077C320.88 90.238 319.957 89.7871 319.054 89.3361C318.546 89.0919 318.339 88.4719 318.584 87.9646C318.828 87.4574 319.449 87.2507 319.957 87.4949C320.88 87.9459 321.82 88.4155 322.742 88.8852C323.251 89.1483 323.439 89.7683 323.175 90.2568C322.968 90.6325 322.611 90.8204 322.253 90.8204ZM214.221 87.6828C213.826 87.6828 213.449 87.4574 213.28 87.0816C213.054 86.5743 213.28 85.9543 213.807 85.7289C214.748 85.3155 215.689 84.9022 216.648 84.5077C217.175 84.2822 217.777 84.5453 217.984 85.0525C218.21 85.5786 217.947 86.1798 217.439 86.3865C216.517 86.781 215.576 87.1756 214.654 87.5889C214.503 87.664 214.371 87.6828 214.221 87.6828ZM314.049 86.9501C313.917 86.9501 313.785 86.9313 313.654 86.8749C312.713 86.4804 311.772 86.0859 310.831 85.7101C310.304 85.5034 310.041 84.9022 310.266 84.3762C310.473 83.8501 311.076 83.5871 311.602 83.8125C312.562 84.1883 313.522 84.6016 314.481 84.9962C315.008 85.2216 315.234 85.8228 315.027 86.3489C314.82 86.7246 314.444 86.9501 314.049 86.9501ZM222.595 84.3198C222.181 84.3198 221.785 84.0568 221.635 83.6434C221.447 83.1174 221.71 82.5162 222.256 82.3283C223.216 81.9713 224.213 81.6331 225.191 81.3137C225.737 81.1259 226.302 81.4265 226.49 81.9525C226.678 82.4974 226.377 83.061 225.85 83.2489C224.89 83.5683 223.912 83.9065 222.971 84.2446C222.82 84.2822 222.708 84.3198 222.595 84.3198ZM305.581 83.681C305.468 83.681 305.355 83.6622 305.242 83.6246C304.282 83.2865 303.304 82.9671 302.344 82.6665C301.798 82.4974 301.497 81.915 301.685 81.3889C301.855 80.8441 302.438 80.5434 302.965 80.7313C303.944 81.0507 304.941 81.3701 305.919 81.7083C306.446 81.8962 306.747 82.4786 306.559 83.0046C306.409 83.418 306.014 83.681 305.581 83.681ZM231.213 81.5392C230.762 81.5392 230.348 81.2386 230.235 80.7877C230.084 80.2428 230.404 79.6792 230.95 79.5289C231.947 79.2471 232.944 78.9841 233.942 78.721C234.487 78.5895 235.052 78.9089 235.184 79.4537C235.315 79.9986 234.995 80.5622 234.45 80.6937C233.471 80.938 232.474 81.201 231.495 81.4828C231.401 81.5392 231.307 81.5392 231.213 81.5392ZM296.906 81.0507C296.812 81.0507 296.736 81.0319 296.642 81.0131C295.664 80.7501 294.666 80.5059 293.688 80.2616C293.142 80.1301 292.803 79.5853 292.935 79.0216C293.067 78.4768 293.613 78.1386 294.177 78.2701C295.175 78.5144 296.191 78.7586 297.188 79.0216C297.734 79.1719 298.054 79.7356 297.922 80.2804C297.771 80.7501 297.357 81.0507 296.906 81.0507ZM240.02 79.4162C239.549 79.4162 239.117 79.078 239.022 78.5895C238.91 78.0447 239.267 77.4998 239.832 77.3871C240.848 77.1804 241.864 76.9925 242.88 76.8047C243.445 76.7107 243.972 77.0677 244.066 77.6313C244.16 78.195 243.802 78.721 243.238 78.815C242.24 78.9841 241.243 79.1907 240.246 79.3786C240.152 79.4162 240.076 79.4162 240.02 79.4162ZM288.08 79.0592C288.024 79.0592 287.949 79.0592 287.892 79.0404C286.895 78.8525 285.879 78.6834 284.881 78.5144C284.317 78.4204 283.94 77.8944 284.034 77.3307C284.129 76.7671 284.655 76.3913 285.22 76.4853C286.236 76.6544 287.271 76.8235 288.268 77.0113C288.833 77.1241 289.191 77.6501 289.096 78.2137C288.984 78.721 288.57 79.0592 288.08 79.0592ZM248.939 77.9507C248.431 77.9507 247.999 77.575 247.923 77.0489C247.848 76.4853 248.243 75.978 248.808 75.9028C249.824 75.7713 250.859 75.6586 251.894 75.5459C252.458 75.4895 252.966 75.9028 253.023 76.4665C253.079 77.0301 252.665 77.5374 252.101 77.5938C251.085 77.7065 250.068 77.8192 249.071 77.9507C249.034 77.9319 248.996 77.9507 248.939 77.9507ZM279.123 77.7065C279.085 77.7065 279.048 77.7065 279.01 77.7065C278.013 77.5938 276.978 77.481 275.98 77.4059C275.416 77.3495 275.002 76.861 275.058 76.2974C275.115 75.7338 275.604 75.3204 276.169 75.3768C277.185 75.4707 278.239 75.5647 279.255 75.6962C279.819 75.7525 280.214 76.2598 280.158 76.8235C280.083 77.3307 279.631 77.7065 279.123 77.7065ZM257.972 77.1241C257.426 77.1241 256.975 76.7107 256.956 76.1659C256.918 75.6022 257.351 75.1138 257.915 75.095C258.95 75.0386 259.985 75.001 261.02 74.9635C261.585 74.9447 262.055 75.3956 262.074 75.9592C262.093 76.5228 261.641 76.9925 261.077 77.0113C260.061 77.0489 259.045 77.0865 258.028 77.1428C258.01 77.1241 257.991 77.1241 257.972 77.1241ZM270.091 77.0301C270.072 77.0301 270.072 77.0301 270.053 77.0301C269.037 76.9925 268.021 76.955 267.004 76.9362C266.44 76.9362 265.988 76.4665 265.988 75.9028C265.988 75.3392 266.459 74.8883 267.004 74.8883H267.023C268.058 74.9071 269.093 74.9259 270.128 74.9822C270.693 75.001 271.125 75.4895 271.107 76.0531C271.088 76.598 270.636 77.0301 270.091 77.0301Z" fill="#651FFF"/>
<path d="M319.562 45.2036H274.851V100.909H319.562V45.2036Z" fill="#00E5FF"/>
<path d="M325.358 50.9526H280.647V106.659H325.358V50.9526Z" fill="white" stroke="#651FFF" stroke-width="7.9165" stroke-miterlimit="10"/>
<path d="M332.716 56.6078H288.005V112.314H332.716V56.6078Z" fill="white" stroke="#651FFF" stroke-width="7.9165" stroke-miterlimit="10"/>
<path d="M338.079 62.3568H293.368V118.063H338.079V62.3568Z" fill="#651FFF"/>
<path d="M331.116 71.5065H307.989V75.1325H331.116V71.5065Z" fill="#00E5FF"/>
<path d="M331.098 80.0174H301.14V83.6435H331.098V80.0174Z" fill="#00E5FF"/>
<path d="M331.098 88.5283H301.14V92.1543H331.098V88.5283Z" fill="#00E5FF"/>
<path d="M331.098 97.0392H301.14V100.665H331.098V97.0392Z" fill="#00E5FF"/>
<path d="M331.098 105.569H301.14V109.195H331.098V105.569Z" fill="#00E5FF"/>
<path d="M187.936 116.994C194.101 110.838 194.101 100.857 187.936 94.7017C181.77 88.5459 171.774 88.5459 165.608 94.7017C159.443 100.857 159.443 110.838 165.608 116.994C171.774 123.15 181.77 123.149 187.936 116.994Z" fill="#00E5FF"/>
<path d="M201.688 120.843C203.739 117.462 205.019 113.798 205.565 110.097L206.75 110.266L209.065 110.604H209.102C209.723 106.377 209.516 102.093 208.5 98.0162L205.038 98.8616C204.116 95.1604 202.478 91.6471 200.145 88.5283L203.005 86.4053C200.559 83.0798 197.417 80.1865 193.653 77.9132L191.809 80.9756C188.403 78.9277 184.752 77.6501 181.045 77.1053L181.553 73.5732C177.319 72.9532 173.029 73.1786 168.945 74.1744L169.792 77.6314C166.085 78.552 162.566 80.1865 159.442 82.5162L157.316 79.6792C153.985 82.1217 151.087 85.2592 148.81 89.0168L151.878 90.858C149.827 94.2586 148.547 97.9034 148.001 101.605L145.498 101.229L144.482 101.079H144.464C143.843 105.306 144.068 109.589 145.066 113.666L148.528 112.821C149.45 116.522 151.106 120.054 153.421 123.154L150.56 125.277C153.007 128.603 156.149 131.496 159.894 133.751L161.738 130.688C165.144 132.736 168.814 134.014 172.521 134.559L172.107 137.302L171.994 138.091C176.228 138.711 180.518 138.485 184.602 137.471L183.755 134.014C187.462 133.093 191 131.44 194.123 129.129L196.25 131.985C199.562 129.523 202.46 126.405 204.737 122.647L201.688 120.843ZM168.625 119.34C161.155 114.831 158.746 105.156 163.262 97.6968C167.76 90.238 177.451 87.8519 184.94 92.3422C192.411 96.8325 194.801 106.508 190.303 113.967C185.787 121.445 176.077 123.849 168.625 119.34Z" fill="#651FFF"/>
<path d="M142.582 118.739C141.434 116.992 139.966 115.564 138.329 114.474L138.668 113.948L139.364 112.915V112.896C137.482 111.637 135.412 110.773 133.229 110.341L132.853 112.182C130.877 111.788 128.826 111.769 126.831 112.163L126.474 110.322C124.347 110.736 122.24 111.581 120.32 112.84L121.355 114.399C119.605 115.545 118.175 117.011 117.084 118.645L115.522 117.612C114.261 119.491 113.395 121.576 112.963 123.737L114.807 124.112C114.412 126.085 114.393 128.133 114.788 130.125L112.944 130.482C113.358 132.605 114.205 134.709 115.465 136.625L117.027 135.592C118.175 137.339 119.643 138.767 121.28 139.857L120.546 140.965L120.245 141.416C122.127 142.675 124.216 143.539 126.38 143.971L126.756 142.13C128.732 142.525 130.783 142.543 132.778 142.13L133.135 143.971C135.262 143.558 137.35 142.731 139.289 141.454L138.254 139.894C140.004 138.748 141.434 137.283 142.525 135.648L143.73 136.456L144.087 136.682C145.348 134.803 146.195 132.736 146.646 130.557L144.802 130.181C145.197 128.208 145.216 126.16 144.821 124.15L146.665 123.793C146.251 121.67 145.404 119.585 144.144 117.649L142.582 118.739ZM134.415 134.108C130.576 136.644 125.42 135.592 122.898 131.759C120.358 127.945 121.412 122.797 125.251 120.261C129.071 117.725 134.227 118.777 136.767 122.609C139.289 126.442 138.235 131.571 134.415 134.108Z" fill="#651FFF"/>
<path d="M400.817 150.791H362.429C361.62 150.791 360.961 150.134 360.961 149.326V127.569C360.961 126.762 361.62 126.104 362.429 126.104H400.817C401.626 126.104 402.285 126.762 402.285 127.569V149.307C402.285 150.134 401.626 150.791 400.817 150.791Z" fill="#651FFF"/>
<path d="M402.285 130.782H360.98V135.047H402.285V130.782Z" fill="#621FFF"/>
<path d="M370.445 146.057H364.367C363.972 146.057 363.671 146.376 363.671 146.752C363.671 147.146 363.991 147.447 364.367 147.447H370.445C370.841 147.447 371.142 147.128 371.142 146.752C371.142 146.357 370.822 146.057 370.445 146.057Z" fill="#D1F5FF"/>
<path d="M379.779 146.057H373.701C373.306 146.057 373.005 146.376 373.005 146.752C373.005 147.146 373.325 147.447 373.701 147.447H379.779C380.174 147.447 380.475 147.128 380.475 146.752C380.475 146.357 380.174 146.057 379.779 146.057Z" fill="#D1F5FF"/>
<path d="M389.113 146.057H383.035C382.639 146.057 382.338 146.376 382.338 146.752C382.338 147.146 382.658 147.447 383.035 147.447H389.113C389.508 147.447 389.809 147.128 389.809 146.752C389.828 146.357 389.508 146.057 389.113 146.057Z" fill="#D1F5FF"/>
<path d="M398.465 146.057H392.387C391.992 146.057 391.691 146.376 391.691 146.752C391.691 147.146 392.011 147.447 392.387 147.447H398.465C398.86 147.447 399.161 147.128 399.161 146.752C399.161 146.357 398.841 146.057 398.465 146.057Z" fill="#D1F5FF"/>
<path d="M364.085 127.363C363.652 127.363 363.313 127.701 363.313 128.133V128.396C363.313 128.828 363.652 129.166 364.085 129.166C364.518 129.166 364.857 128.828 364.857 128.396V128.133C364.857 127.72 364.518 127.363 364.085 127.363Z" fill="#D1F5FF"/>
<path d="M365.741 128.265C365.741 128.772 366.155 129.166 366.644 129.166H369.862C370.37 129.166 370.765 128.753 370.765 128.265C370.765 127.757 370.351 127.363 369.862 127.363H366.644C366.155 127.363 365.741 127.776 365.741 128.265Z" fill="#D1F5FF"/>
<path d="M365.327 137.32H369.486C370.144 137.32 370.69 137.865 370.69 138.523V142.092C370.69 142.75 370.144 143.295 369.486 143.295H365.327C364.668 143.295 364.123 142.75 364.123 142.092V138.523C364.123 137.865 364.668 137.32 365.327 137.32Z" fill="#621FFF"/>
<path d="M382.658 217.864V214.97C382.658 213.655 381.585 212.584 380.268 212.584H354.827C353.509 212.584 352.437 213.655 352.437 214.97V266.261H418.242V217.864H382.658Z" fill="#651FFF"/>
<path d="M420.971 219.611H356.445L352.437 266.242H417.922L420.971 219.611Z" fill="white"/>
<path d="M418.242 266.242H352.437L359.418 220.194C359.625 218.841 360.773 217.845 362.147 217.845H422.363C424.057 217.845 425.337 219.348 425.092 221.02L418.242 266.242Z" fill="#651FFF"/>
<path d="M425.13 234.66C433.454 234.66 440.203 227.922 440.203 219.611C440.203 211.3 433.454 204.562 425.13 204.562C416.805 204.562 410.057 211.3 410.057 219.611C410.057 227.922 416.805 234.66 425.13 234.66Z" fill="#651FFF"/>
<path d="M425.13 235.224C416.511 235.224 409.492 228.216 409.492 219.611C409.492 211.006 416.511 204.017 425.13 204.017C433.748 204.017 440.767 211.025 440.767 219.611C440.767 228.216 433.748 235.224 425.13 235.224ZM425.13 205.107C417.113 205.107 410.602 211.607 410.602 219.611C410.602 227.615 417.113 234.115 425.13 234.115C433.146 234.115 439.657 227.615 439.657 219.611C439.657 211.626 433.146 205.107 425.13 205.107Z" fill="white"/>
<path d="M417.866 216.887V227.54C417.866 228.723 432.374 228.723 432.374 227.54V216.887H417.866ZM425.863 222.561V225.586C425.863 225.98 425.544 226.318 425.13 226.318C424.716 226.318 424.396 225.98 424.396 225.586V222.561C423.775 222.279 423.342 221.659 423.342 220.926C423.342 219.93 424.151 219.141 425.13 219.141C426.127 219.141 426.917 219.93 426.917 220.926C426.917 221.64 426.484 222.279 425.863 222.561Z" fill="white"/>
<path d="M431.114 216.135H429.646V215.421C429.646 212.941 427.613 210.912 425.13 210.912C422.646 210.912 420.613 212.941 420.613 215.421V216.135H419.146V215.421C419.146 212.133 421.836 209.447 425.13 209.447C428.423 209.447 431.114 212.133 431.114 215.421V216.135Z" fill="white"/>
<path d="M145.988 201.143C145.969 201.124 145.95 201.105 145.931 201.086C138.536 208.977 126.756 215.459 114.148 218.221C114.148 219.066 114.129 223.726 114.035 245.2C113.904 273.852 141.208 287.848 145.461 289.99C133.004 239.658 142.751 209.203 145.988 201.143Z" fill="#651FFF"/>
<path d="M145.988 201.143C142.751 209.203 132.985 239.658 145.442 289.99C149.544 288.111 177.206 274.133 177.338 245.482C177.432 224.007 177.451 219.348 177.451 218.503C164.918 215.647 153.308 209.09 145.988 201.143Z" fill="#651FFF"/>
<path d="M145.988 201.143C145.969 201.124 145.95 201.105 145.931 201.086C138.536 208.977 126.756 215.459 114.148 218.221C114.148 219.066 114.129 223.726 114.035 245.2C113.904 273.852 141.208 287.848 145.461 289.99C149.563 288.111 177.225 274.133 177.357 245.482C177.451 224.007 177.47 219.348 177.47 218.503C164.918 215.647 153.308 209.09 145.988 201.143Z" stroke="white" stroke-width="11.8596" stroke-miterlimit="10"/>
<path d="M145.894 284.673L145.009 284.617C142.036 283.076 136.24 279.676 130.708 274.171C122.221 265.735 117.949 256.003 118.006 245.238L118.119 221.509L118.909 221.302C129.108 218.672 138.423 213.843 145.122 207.718L145.875 207.023L146.59 207.737L145.894 208.545L146.628 207.756C153.27 213.937 162.51 218.822 172.652 221.527L173.443 221.734L173.33 245.463C173.273 256.229 168.927 265.923 160.364 274.284C154.964 279.563 149.281 282.888 146.364 284.391L145.894 284.673ZM120.245 223.181L120.151 245.256C120.113 255.439 124.178 264.664 132.232 272.668C137.275 277.684 142.563 280.878 145.536 282.475C148.34 281.01 153.759 277.816 158.916 272.781C167.045 264.833 171.185 255.665 171.241 245.482L171.335 223.406C161.494 220.663 152.517 215.929 145.856 209.954C139.119 215.872 130.106 220.532 120.245 223.181Z" fill="#651FFF"/>
<path d="M133.098 241.311V260.118C133.098 262.203 158.709 262.203 158.709 260.118V241.311H133.098ZM147.211 251.306V256.642C147.211 257.356 146.628 257.938 145.913 257.938C145.197 257.938 144.614 257.356 144.614 256.642V251.306C143.523 250.818 142.751 249.709 142.751 248.432C142.751 246.684 144.181 245.275 145.913 245.275C147.644 245.275 149.074 246.684 149.074 248.432C149.074 249.69 148.321 250.799 147.211 251.306Z" fill="white"/>
<path d="M156.469 239.977H153.872V238.718C153.872 234.322 150.297 230.752 145.912 230.752C141.509 230.752 137.934 234.322 137.934 238.718V239.977H135.337V238.718C135.337 232.913 140.079 228.178 145.894 228.178C151.708 228.178 156.45 232.913 156.45 238.718V239.977H156.469Z" fill="white"/>
<path d="M304.264 177.151C304.395 176.155 304.489 175.14 304.489 174.107C304.489 161.688 294.422 151.637 281.983 151.637C272.65 151.637 264.652 157.292 261.246 165.371C258.461 162.909 254.811 161.388 250.802 161.388C242.109 161.388 235.071 168.414 235.071 177.094H232.135C223.78 177.094 216.949 183.914 216.949 192.256C216.949 200.598 223.78 207.418 232.135 207.418H303.153C311.508 207.418 318.339 200.598 318.339 192.256C318.339 184.29 312.11 177.714 304.264 177.151Z" fill="white"/>
<path d="M267.494 205.652L259.571 196.803L251.649 205.652H255.864V215.327H263.279V205.652H267.494Z" fill="#651FFF"/>
<path d="M266.289 208.019L274.212 216.868L282.134 208.019H277.919V198.343H270.504V208.019H266.289Z" fill="#651FFF"/>
<path d="M425.094 156.854C425.467 155.279 424.49 153.7 422.912 153.328C421.334 152.956 419.753 153.932 419.38 155.507C419.008 157.082 419.985 158.661 421.563 159.033C423.14 159.405 424.721 158.429 425.094 156.854Z" fill="white"/>
<path d="M178.855 160.862C179.225 159.286 178.246 157.709 176.667 157.339C175.089 156.97 173.509 157.948 173.139 159.524C172.769 161.1 173.749 162.677 175.327 163.046C176.906 163.416 178.485 162.438 178.855 160.862Z" fill="white"/>
<path d="M156.887 316.455C157.257 314.879 156.277 313.302 154.699 312.933C153.12 312.563 151.541 313.541 151.171 315.117C150.801 316.693 151.78 318.27 153.359 318.64C154.937 319.009 156.517 318.031 156.887 316.455Z" fill="white"/>
<path d="M351.044 191.617C350.499 191.617 350.066 191.185 350.066 190.64V180.251C350.066 179.706 350.499 179.274 351.044 179.274C351.59 179.274 352.023 179.706 352.023 180.251V190.64C352.023 191.185 351.571 191.617 351.044 191.617Z" fill="white"/>
<path d="M344.872 185.455C344.872 184.91 345.305 184.478 345.851 184.478H356.257C356.803 184.478 357.235 184.91 357.235 185.455C357.235 186 356.803 186.432 356.257 186.432H345.851C345.305 186.432 344.872 186 344.872 185.455Z" fill="white"/>
<path d="M357.386 316.838C356.84 316.838 356.407 316.406 356.407 315.861V305.49C356.407 304.945 356.84 304.513 357.386 304.513C357.932 304.513 358.365 304.945 358.365 305.49V315.88C358.365 316.406 357.913 316.838 357.386 316.838Z" fill="white"/>
<path d="M351.214 310.676C351.214 310.131 351.647 309.699 352.192 309.699H362.598C363.144 309.699 363.577 310.131 363.577 310.676C363.577 311.22 363.144 311.653 362.598 311.653H352.192C351.647 311.634 351.214 311.202 351.214 310.676Z" fill="white"/>
<path d="M90.3062 217.112C89.6852 217.112 89.1583 216.605 89.1583 215.966V203.773C89.1583 203.153 89.6664 202.627 90.3062 202.627C90.9272 202.627 91.4541 203.134 91.4541 203.773V215.966C91.4541 216.605 90.946 217.112 90.3062 217.112Z" fill="white"/>
<path d="M83.0614 209.879C83.0614 209.259 83.5695 208.733 84.2093 208.733H96.422C97.043 208.733 97.5699 209.24 97.5699 209.879C97.5699 210.499 97.0618 211.025 96.422 211.025H84.2093C83.5695 211.025 83.0614 210.518 83.0614 209.879Z" fill="white"/>
<path d="M216.084 62.3756C215.538 62.3756 215.105 61.9435 215.105 61.3987V50.8775C215.105 50.3326 215.538 49.9005 216.084 49.9005C216.629 49.9005 217.062 50.3326 217.062 50.8775V61.3987C217.081 61.9247 216.629 62.3756 216.084 62.3756Z" fill="#651FFF"/>
<path d="M209.836 56.1193C209.836 55.5745 210.269 55.1423 210.815 55.1423H221.353C221.898 55.1423 222.331 55.5745 222.331 56.1193C222.331 56.6642 221.898 57.0963 221.353 57.0963H210.815C210.269 57.0963 209.836 56.6642 209.836 56.1193Z" fill="#651FFF"/>
<path d="M244.273 58.3362C243.727 58.3362 243.294 57.9041 243.294 57.3593V46.9696C243.294 46.4247 243.727 45.9926 244.273 45.9926C244.818 45.9926 245.251 46.4247 245.251 46.9696V57.3593C245.251 57.9041 244.818 58.3362 244.273 58.3362Z" fill="#AAE0FF"/>
<path d="M238.1 52.1738C238.1 51.629 238.533 51.1968 239.079 51.1968H249.485C250.031 51.1968 250.464 51.629 250.464 52.1738C250.464 52.7187 250.031 53.1508 249.485 53.1508H239.079C238.533 53.132 238.1 52.6999 238.1 52.1738Z" fill="#AAE0FF"/>
<path d="M376.034 98.5985C379.131 98.5985 381.642 96.0919 381.642 92.9998C381.642 89.9077 379.131 87.401 376.034 87.401C372.937 87.401 370.427 89.9077 370.427 92.9998C370.427 96.0919 372.937 98.5985 376.034 98.5985Z" fill="#AAE0FF"/>
<path d="M228.842 119.491C231.939 119.491 234.45 116.984 234.45 113.892C234.45 110.8 231.939 108.293 228.842 108.293C225.745 108.293 223.234 110.8 223.234 113.892C223.234 116.984 225.745 119.491 228.842 119.491Z" fill="#AAE0FF"/>
<path d="M154.343 306.167C157.44 306.167 159.95 303.66 159.95 300.568C159.95 297.476 157.44 294.969 154.343 294.969C151.246 294.969 148.735 297.476 148.735 300.568C148.735 303.66 151.246 306.167 154.343 306.167Z" fill="#AAE0FF"/>
<path d="M218.983 318.417L183.7 364.729C179.316 382.766 189.232 398.998 207.881 403.263L289.907 365.725L218.983 318.417Z" fill="#FFA04D"/>
<path d="M192.168 347.294L2.14689 445.724C-10.7621 451.886 36.7338 517.099 85.9422 496.263L210.402 401.948C234.866 393.832 216.612 339.159 192.168 347.294Z" fill="#FFA04D"/>
<path d="M222.578 326.778C222.578 326.778 324.739 249.804 333.753 264.778C344.083 281.931 236.202 348.177 236.202 348.177L222.578 326.778Z" fill="#FFA04D"/>
<path d="M227.564 407.566L301.142 407.115C305.733 407.096 309.44 403.169 309.44 398.378L309.158 239.565C309.158 234.943 305.488 231.185 300.991 231.185L228.844 230.96C224.309 230.941 220.602 234.699 220.564 239.339L219.266 398.904C219.228 403.714 222.935 407.584 227.564 407.566Z" fill="white"/>
<path d="M226.548 406.401C226.849 406.438 227.169 406.457 227.47 406.457L301.029 405.931C304.98 405.912 308.198 402.474 308.198 398.303L307.935 239.659C307.935 235.619 304.755 232.332 300.878 232.313L228.731 232.012C228.618 232.012 228.505 232.012 228.392 232.012C226.586 232.087 224.873 232.858 223.613 234.192C222.314 235.544 221.599 237.329 221.58 239.245L220.282 398.961C220.282 402.756 222.954 405.95 226.548 406.401Z" fill="#33201B"/>
<path d="M224.139 240.41L222.916 399.581L305.771 399.111L305.564 240.41H224.139Z" fill="white"/>
<path d="M280.582 336.611H291.459V325.751H280.582V336.611Z" stroke="#00E5FF" stroke-width="4.9361" stroke-miterlimit="10"/>
<path d="M266.25 336.611H277.127V325.751H266.25V336.611Z" stroke="#00E5FF" stroke-width="4.9361" stroke-miterlimit="10"/>
<path d="M251.937 336.611H262.814V325.751H251.937V336.611Z" stroke="#00E5FF" stroke-width="4.9361" stroke-miterlimit="10"/>
<path d="M237.605 336.611H248.482V325.751H237.605V336.611Z" stroke="#00E5FF" stroke-width="4.9361" stroke-miterlimit="10"/>
<path d="M286.144 333.654C287.391 333.654 288.402 332.645 288.402 331.4C288.402 330.155 287.391 329.145 286.144 329.145C284.897 329.145 283.886 330.155 283.886 331.4C283.886 332.645 284.897 333.654 286.144 333.654Z" fill="#4D4D4D"/>
<path d="M271.786 333.654C273.033 333.654 274.044 332.645 274.044 331.4C274.044 330.155 273.033 329.145 271.786 329.145C270.539 329.145 269.528 330.155 269.528 331.4C269.528 332.645 270.539 333.654 271.786 333.654Z" fill="#4D4D4D"/>
<path d="M257.428 333.654C258.675 333.654 259.686 332.645 259.686 331.4C259.686 330.155 258.675 329.145 257.428 329.145C256.181 329.145 255.17 330.155 255.17 331.4C255.17 332.645 256.181 333.654 257.428 333.654Z" fill="#4D4D4D"/>
<path d="M242.807 333.654C244.054 333.654 245.065 332.645 245.065 331.4C245.065 330.155 244.054 329.145 242.807 329.145C241.559 329.145 240.548 330.155 240.548 331.4C240.548 332.645 241.559 333.654 242.807 333.654Z" fill="#4D4D4D"/>
<path d="M259.968 278.23V276.051C259.968 275.055 259.159 274.266 258.181 274.266H239.137C238.14 274.266 237.349 275.074 237.349 276.051V314.472H286.633V278.23H259.968Z" fill="white"/>
<path d="M260.119 278.23V276.051C260.119 275.055 259.31 274.266 258.331 274.266H239.288C238.29 274.266 237.5 275.074 237.5 276.051V314.472H286.784V278.23H260.119Z" fill="#BFE1FF"/>
<path d="M260.571 278.23V276.051C260.571 275.055 259.761 274.266 258.783 274.266H239.739C238.742 274.266 237.952 275.074 237.952 276.051V314.472H287.235V278.23H260.571Z" fill="#1A5280"/>
<path d="M239.137 279.733V314.472H284.789V279.564L239.137 279.733Z" fill="white"/>
<path d="M241.245 279.733V314.472H287.292V279.564L241.245 279.733Z" fill="#00E5FF"/>
<path d="M289.117 278.23H243.71C242.769 278.23 242.092 278.85 241.96 279.714V314.472H291.507V280.597C291.526 279.357 290.397 278.23 289.117 278.23Z" fill="#BFE1FF"/>
<path d="M282.985 268.697L249.471 268.79L249.542 294.21L283.057 294.117L282.985 268.697Z" fill="#CCE7FF"/>
<path d="M282.104 269.526L250.302 269.615L250.367 292.987L282.169 292.898L282.104 269.526Z" fill="#651FFF"/>
<path d="M253.062 291.1L273.479 291.044L262.321 280.334L253.062 291.1Z" fill="#E3EEFF"/>
<path d="M262.339 291.081L279.52 291.025L270.205 282.176L262.339 291.081Z" fill="#E3EEFF"/>
<path d="M270.375 279.638C271.301 278.713 271.301 277.215 270.375 276.29C269.449 275.366 267.948 275.366 267.022 276.29C266.096 277.215 266.096 278.713 267.022 279.638C267.948 280.562 269.449 280.562 270.375 279.638Z" fill="#E3EEFF"/>
<path d="M288.172 262.851L257.104 262.951L257.19 289.93L288.259 289.83L288.172 262.851Z" fill="#CCE7FF"/>
<path d="M287.272 263.737L257.973 263.831L258.053 288.631L287.352 288.537L287.272 263.737Z" fill="#00E5FF"/>
<path d="M272.52 267.239H260.853V268.254H272.52V267.239Z" fill="#CCE5FF"/>
<path d="M284.601 270.001H260.853V271.016H284.601V270.001Z" fill="#CCE5FF"/>
<path d="M284.601 272.819H260.853V273.834H284.601V272.819Z" fill="#CCE5FF"/>
<path d="M284.601 275.825H260.853V276.84H284.601V275.825Z" fill="#CCE5FF"/>
<path d="M291.752 280.616V314.491H242.524V279.733C242.656 278.869 243.352 278.249 244.274 278.249H289.381C290.622 278.23 291.752 279.357 291.752 280.616Z" fill="#651FFF"/>
<path d="M242.449 314.021H237.481V314.491H242.449V314.021Z" fill="#BFE1FF"/>
<path d="M273.341 294.817C273.997 290.781 271.252 286.979 267.21 286.324C263.168 285.669 259.36 288.409 258.704 292.445C258.048 296.48 260.793 300.283 264.835 300.938C268.877 301.593 272.685 298.852 273.341 294.817Z" fill="white"/>
<path d="M266.028 293.354C266.686 293.354 267.27 293.035 267.665 292.565C267.947 292.208 268.116 291.776 268.116 291.269C268.116 290.123 267.175 289.165 266.028 289.165C264.861 289.165 263.92 290.104 263.92 291.269C263.92 291.776 264.089 292.208 264.372 292.565C264.767 293.035 265.369 293.354 266.028 293.354Z" fill="#275880"/>
<path d="M269.716 297.093C269.716 298.408 262.321 298.408 262.321 297.093V295.553C262.622 293.448 269.114 293.354 269.716 295.553V297.093Z" fill="#275880"/>
<path d="M278.203 304.853H253.853V306.205H278.203V304.853Z" fill="white"/>
<path d="M275.324 307.652H256.694V309.005H275.324V307.652Z" fill="white"/>
<path d="M274.555 356.944H291.359V346.855H274.555V356.944Z" fill="#AAE0FF"/>
<path d="M255.503 356.944H272.307V346.855H255.503V356.944Z" fill="#AAE0FF"/>
<path d="M236.45 356.944H253.254V346.855H236.45V356.944Z" fill="#AAE0FF"/>
<path d="M274.555 368.803H291.359V358.714H274.555V368.803Z" fill="#AAE0FF"/>
<path d="M255.503 368.803H272.307V358.714H255.503V368.803Z" fill="#AAE0FF"/>
<path d="M236.45 368.803H253.254V358.714H236.45V368.803Z" fill="#AAE0FF"/>
<path d="M274.555 380.532H291.359V370.443H274.555V380.532Z" fill="#AAE0FF"/>
<path d="M255.503 380.532H272.307V370.443H255.503V380.532Z" fill="#AAE0FF"/>
<path d="M255.503 392.41H272.307V382.321H255.503V392.41Z" fill="#AAE0FF"/>
<path d="M236.45 380.532H253.254V370.443H236.45V380.532Z" fill="#AAE0FF"/>
<path d="M309.44 296.492C309.44 296.492 331.231 305.172 317.438 322.682C303.644 340.174 296.531 322.682 304.585 308.516C307.577 303.293 309.44 296.492 309.44 296.492Z" fill="#FFA04D"/>
<path d="M309.44 316.219C309.44 316.219 331.231 324.899 317.438 342.409C303.644 359.92 296.531 342.409 304.585 328.243C307.577 323.02 309.44 316.219 309.44 316.219Z" fill="#FFA04D"/>
<path d="M309.929 350.902C309.929 350.902 326.941 357.684 316.177 371.324C305.413 384.964 299.862 371.324 306.147 360.277C308.48 356.219 309.929 350.902 309.929 350.902Z" fill="#FFA04D"/>
<path d="M185.525 362.343C197.268 333.711 222.916 279.639 222.916 279.639C222.916 279.639 229.691 277.216 232.005 289.879C234.32 302.542 223.255 327.304 223.255 327.304C223.255 327.304 238.083 388.026 206.3 392.704C184.208 395.955 178.318 374.274 185.525 362.343Z" fill="#FFA04D"/>
<path d="M304.999 431.952C304.999 431.952 258.67 358.943 265.388 349.981C272.106 341.019 326.131 422.784 326.131 422.784L304.999 431.952Z" fill="#FFA04D"/>
<path d="M287.536 444.315C291.883 451.153 336.462 481.665 336.462 481.665C372.668 463.084 310.099 429.416 310.099 429.416C310.099 429.416 323.365 403.263 309.892 400.708C300.05 398.848 294.16 405.988 291.695 409.971C291.356 410.515 291.093 411.004 290.867 411.398C290.509 412.075 290.34 412.488 290.34 412.488C290.34 412.488 283.171 437.476 287.536 444.315Z" fill="#FFA04D"/>
<path d="M300.295 435.484L304.961 431.877L336.857 482.153L380.251 455.212C380.251 455.212 366.985 396.631 360.116 389.248C353.248 381.864 344.178 378.294 344.178 378.294C335.935 374.931 333.037 378.933 329.349 378.388C320.938 377.148 317.155 384.626 314.747 384.081C311.999 383.461 308.462 384.156 305.469 385.603C304.171 386.223 302.986 386.993 302.007 387.876C300.991 388.759 300.219 389.755 299.768 390.807L286.614 395.448L290.792 407.66L290.359 407.772L291.431 409.557L300.295 435.484Z" fill="#FFA04D"/>
<path d="M298.112 431.877C301.969 442.981 310.324 440.726 307.22 434.207L291.563 410.215C291.224 410.76 291.074 411.041 290.867 411.436C295.496 418.557 298.112 431.877 298.112 431.877Z" fill="#CC6004"/>
<path d="M339.097 483.675C389.923 523.43 419.335 488.128 416.438 475.653L375.697 444.69L326.997 475.108L339.097 483.675Z" fill="#FFA04D"/>
</g>
<defs>
<clipPath id="clip0_0_240">
<rect width="502" height="509" fill="white"/>
</clipPath>
</defs>
</svg>
