<svg width="20" height="18" viewBox="0 0 20 18" fill="none" xmlns="http://www.w3.org/2000/svg">
<path d="M18.9891 7.62947L10.4901 0.67568C10.3519 0.562124 10.1784 0.5 9.9995 0.5C9.82056 0.5 9.64715 0.562124 9.50894 0.67568L1.00987 7.62947C0.795833 7.80477 0.691706 8.08092 0.7366 8.35382C0.781368 8.62671 0.968367 8.85494 1.22716 8.95268C1.48597 9.05027 1.77709 9.00236 1.99102 8.82718L3.04574 7.96172V15.1821C3.04574 15.7968 3.28996 16.3864 3.7247 16.821C4.15931 17.2558 4.74897 17.5 5.36367 17.5H14.6354C15.2501 17.5 15.8397 17.2558 16.2744 16.821C16.7091 16.3864 16.9533 15.7968 16.9533 15.1821V7.96172L18.008 8.82705V8.82718C18.1465 8.9401 18.3199 9.00147 18.4986 9.00097C18.7129 9.0016 18.9178 8.91332 19.0644 8.757C19.211 8.60081 19.2861 8.39067 19.2719 8.17701C19.2577 7.96322 19.1553 7.76491 18.9891 7.62947ZM8.45415 15.9547V12.0915C8.45415 11.8866 8.53552 11.6901 8.68051 11.5452C8.82538 11.4002 9.02192 11.3188 9.2268 11.3188H10.7721C10.9769 11.3188 11.1735 11.4002 11.3184 11.5452C11.4634 11.6901 11.5447 11.8866 11.5447 12.0915V15.9547H8.45415ZM15.4079 15.1821C15.4079 15.3869 15.3266 15.5835 15.1816 15.7283C15.0367 15.8733 14.8402 15.9547 14.6353 15.9547H13.09V12.0915C13.09 11.4768 12.8458 10.8871 12.411 10.4525C11.9764 10.0178 11.3868 9.77356 10.7721 9.77356H9.22679C8.61209 9.77356 8.02243 10.0178 7.58782 10.4525C7.15308 10.8871 6.90886 11.4768 6.90886 12.0915V15.9547H5.36358C5.15872 15.9547 4.96215 15.8733 4.81728 15.7283C4.67229 15.5835 4.59093 15.3869 4.59093 15.1821V6.68298L9.99943 2.27119L15.4079 6.68298L15.4079 15.1821Z" fill="black"/>
</svg>
